<svg width="24" height="24" viewBox="0 0 24 24" fill="none" xmlns="http://www.w3.org/2000/svg">
<path d="M8.04553 13.0078C8.04553 12.1246 8.66257 11.4008 9.44421 11.4008C10.2258 11.4008 10.8568 12.1246 10.843 13.0078C10.843 13.8911 10.2259 14.615 9.44421 14.615C8.67624 14.615 8.04553 13.8911 8.04553 13.0078Z" fill="white"/>
<path d="M13.0508 13.0078C13.0508 12.1246 13.6679 11.4008 14.4497 11.4008C15.2313 11.4008 15.8483 12.1246 15.8483 13.0078C15.8483 13.8911 15.2313 14.615 14.4497 14.615C13.6817 14.615 13.0508 13.8911 13.0508 13.0078Z" fill="white"/>
<path fill-rule="evenodd" clip-rule="evenodd" d="M2 0C0.895416 0 0 0.895386 0 2V22C0 23.1046 0.895416 24 2 24H22C23.1046 24 24 23.1046 24 22V2C24 0.895386 23.1046 0 22 0H2ZM14.9159 16.9895C15.3273 17.5398 15.821 18.1624 15.821 18.1624C18.8516 18.061 20.0173 15.9615 20.0173 15.9615C20.0173 11.2994 18.0425 7.52051 18.0425 7.52051C16.0678 5.95667 14.1891 6.00024 14.1891 6.00024L13.9971 6.23181C16.3284 6.98474 17.4117 8.07056 17.4117 8.07056C15.9856 7.24536 14.5867 6.83997 13.2841 6.68066C12.3629 6.57349 11.4329 6.58313 10.5139 6.70959C10.4316 6.70959 10.363 6.724 10.2808 6.73853C9.80081 6.78198 8.6351 6.97021 7.16772 7.65076C6.66037 7.89685 6.3587 8.07056 6.3587 8.07056C6.3587 8.07056 7.49695 6.92664 9.96533 6.17395L9.82819 6.00012C9.82819 6.00012 7.94943 5.95667 5.97473 7.52039C5.97473 7.52039 4 11.2994 4 15.9615C4 15.9615 5.15182 18.0609 8.18259 18.1624C8.18259 18.1624 8.69003 17.5109 9.10138 16.9606C7.3598 16.4104 6.70154 15.2521 6.70154 15.2521C6.70154 15.2521 6.75488 15.2915 6.85495 15.3563C6.91531 15.3955 6.99265 15.4438 7.08551 15.4983C7.0946 15.5079 7.10376 15.5176 7.11694 15.5272C7.12357 15.532 7.1312 15.5369 7.14035 15.5416C7.16089 15.556 7.18143 15.5669 7.20193 15.5778C7.22253 15.5886 7.24313 15.5995 7.2637 15.614C7.60663 15.8168 7.94943 15.9761 8.26489 16.1063C8.82709 16.338 9.49905 16.5696 10.2808 16.7289C11.3092 16.9316 12.516 17.004 13.8326 16.7434C14.4771 16.6274 15.1353 16.4249 15.821 16.1207C16.3009 15.9326 16.8358 15.6575 17.398 15.2666C17.398 15.2666 16.7124 16.4537 14.9159 16.9895Z" fill="white"/>
</svg>
