<svg width="24" height="24" viewBox="0 0 24 24" fill="none" xmlns="http://www.w3.org/2000/svg">
<path fill-rule="evenodd" clip-rule="evenodd" d="M0 12C0 5.37253 5.37253 0 12 0C18.6275 0 24 5.37253 24 12C24 18.6275 18.6275 24 12 24C5.37253 24 0 18.6275 0 12ZM15.3181 9.0114L10.2011 13.5994L9.77837 16.0119C9.71599 16.368 10.1205 16.6176 10.4108 16.4022L12.1316 15.125L14.6482 16.8638C15.1557 17.142 15.5219 16.9979 15.6484 16.3957L17.4586 7.92026C17.6439 7.18201 17.1753 6.84717 16.6898 7.06615L6.06029 11.1384C5.33472 11.4276 5.33895 11.8298 5.92804 12.009L8.65582 12.8549L14.9709 8.89643C15.2691 8.71681 15.5427 8.81338 15.3181 9.0114Z" fill="white"/>
</svg>
