<svg width="24" height="24" viewBox="0 0 24 24" fill="none" xmlns="http://www.w3.org/2000/svg">
<path fill-rule="evenodd" clip-rule="evenodd" d="M12 0C5.37258 0 0 5.37258 0 12C0 18.6274 5.37258 24 12 24C18.6274 24 24 18.6274 24 12C24 5.37258 18.6274 0 12 0ZM17.4002 8.99C17.9364 8.92844 18.4477 8.79061 18.9231 8.58683C18.5678 9.10087 18.1183 9.55222 17.5999 9.91353C17.605 10.0233 17.6076 10.1339 17.6076 10.245C17.6076 13.6327 14.9406 17.5386 10.0639 17.5386C8.5667 17.5386 7.17272 17.1144 6 16.3868C6.20702 16.4107 6.41859 16.4228 6.63213 16.4228C7.87465 16.4228 9.01772 16.0131 9.92529 15.3255C8.76482 15.3046 7.78588 14.5635 7.44855 13.5453C7.61029 13.5751 7.77619 13.591 7.94742 13.591C8.18884 13.591 8.42355 13.5598 8.64579 13.501C7.43313 13.2656 6.51884 12.2297 6.51884 10.9877C6.51884 10.977 6.51884 10.9661 6.51903 10.9552C6.87633 11.1477 7.28543 11.263 7.71983 11.2762C7.00881 10.8166 6.54039 10.0317 6.54039 9.14255C6.54039 8.67285 6.67129 8.23221 6.89946 7.8537C8.20723 9.40502 10.161 10.4255 12.3645 10.5323C12.319 10.3446 12.2954 10.149 12.2954 9.94813C12.2954 8.53272 13.4828 7.38477 14.9468 7.38477C15.7098 7.38477 16.3989 7.69599 16.8825 8.19398C17.4862 8.07909 18.0539 7.86593 18.5662 7.57211C18.3679 8.17104 17.9477 8.67285 17.4002 8.99Z" fill="white"/>
</svg>
